<svg xmlns="http://www.w3.org/2000/svg" viewBox="0 0 266.65 81"><defs><style>.cls-1{fill:#00918e;}.cls-2{fill:#98d2ba;}</style></defs><g id="Layer_2" data-name="Layer 2"><g id="Logo"><path class="cls-1" d="M117.76,20.19V59.84a1.68,1.68,0,0,1-1.68,1.68h-9.82a1.68,1.68,0,0,1-1.68-1.68h0a1.67,1.67,0,0,0-2.72-1.31A16.22,16.22,0,0,1,91.56,62a17,17,0,0,1-8.72-2.2A14.75,14.75,0,0,1,77,53.42a21.57,21.57,0,0,1-2.08-9.79V20.19a1.68,1.68,0,0,1,1.68-1.68h9.74A1.68,1.68,0,0,1,88,20.19V41.86a9.4,9.4,0,0,0,2.24,6.71,7.83,7.83,0,0,0,6,2.39,8,8,0,0,0,6.09-2.39,9.44,9.44,0,0,0,2.23-6.71V20.19a1.68,1.68,0,0,1,1.68-1.68h9.82A1.68,1.68,0,0,1,117.76,20.19Z"/><path class="cls-1" d="M122.4,12.45a6.59,6.59,0,0,1-2.2-5,6.68,6.68,0,0,1,2.2-5.12,8,8,0,0,1,5.66-2,7.89,7.89,0,0,1,5.59,2,6.68,6.68,0,0,1,2.2,5.12,6.59,6.59,0,0,1-2.2,5,7.85,7.85,0,0,1-5.59,2.05A7.94,7.94,0,0,1,122.4,12.45Zm12.21,7.92V60.58a1.4,1.4,0,0,1-1.39,1.4H122.83a1.4,1.4,0,0,1-1.4-1.4V20.37a1.4,1.4,0,0,1,1.4-1.4h10.39A1.39,1.39,0,0,1,134.61,20.37Z"/><path class="cls-1" d="M158.71,51.11H169a2.65,2.65,0,0,1,2.65,2.65v5.57A2.64,2.64,0,0,1,169,62H140.93a2.65,2.65,0,0,1-2.65-2.65V52.45a2.67,2.67,0,0,1,.61-1.69l13.7-16.59a2.64,2.64,0,0,0-2-4.33h-9.46a2.65,2.65,0,0,1-2.65-2.65V21.62A2.64,2.64,0,0,1,141.09,19h27.54a2.65,2.65,0,0,1,2.65,2.65v6.86a2.62,2.62,0,0,1-.63,1.71l-14,16.57A2.65,2.65,0,0,0,158.71,51.11Z"/><path class="cls-2" d="M176.6,28.14a18.7,18.7,0,0,1,6.83-7.71,17.78,17.78,0,0,1,9.63-2.7,17,17,0,0,1,7.75,1.78,15,15,0,0,1,3.81,2.71,1,1,0,0,0,1.7-.68V6A1.65,1.65,0,0,1,208,4.32h9.81A1.72,1.72,0,0,1,219.5,6V59.2a2.16,2.16,0,0,1-2.16,2.16H208a1.65,1.65,0,0,1-1.65-1.65v-3a.46.46,0,0,0-.83-.27A13.76,13.76,0,0,1,201,60.13a16.61,16.61,0,0,1-8,1.85,17.56,17.56,0,0,1-9.63-2.74,18.84,18.84,0,0,1-6.83-7.78,26,26,0,0,1-2.5-11.68A25.71,25.71,0,0,1,176.6,28.14Zm27,3.93a8.8,8.8,0,0,0-6.32-2.84,9.34,9.34,0,0,0-5.68,1.67q-4.07,2.87-4.07,8.88a10.91,10.91,0,0,0,2.74,7.83,9.16,9.16,0,0,0,13.33,0,10.74,10.74,0,0,0,2.74-7.78A10.76,10.76,0,0,0,203.58,32.07Z"/><path class="cls-2" d="M232.77,59.28a19.7,19.7,0,0,1-7.94-7.71,23,23,0,0,1-2.89-11.71,22.79,22.79,0,0,1,2.93-11.68,19.84,19.84,0,0,1,8-7.75,25.46,25.46,0,0,1,22.82,0,19.93,19.93,0,0,1,8,7.75,22.89,22.89,0,0,1,2.93,11.68,22.62,22.62,0,0,1-3,11.68,20.15,20.15,0,0,1-8.09,7.74A24.21,24.21,0,0,1,244.14,62,23.69,23.69,0,0,1,232.77,59.28Zm17.8-11.48c1.78-1.85,2.66-4.5,2.66-7.94s-.86-6.09-2.58-7.94a8.75,8.75,0,0,0-12.76,0q-2.53,2.73-2.54,8t2.51,7.94a8.08,8.08,0,0,0,6.28,2.77A8.56,8.56,0,0,0,250.57,47.8Z"/><circle class="cls-1" cx="35.5" cy="35.5" r="35.5"/><circle class="cls-1" cx="72" cy="71" r="10"/></g></g></svg>